<svg xmlns="http://www.w3.org/2000/svg" xmlns:xlink="http://www.w3.org/1999/xlink" width="73" zoomAndPan="magnify" viewBox="0 0 54.75 56.249996" height="75" preserveAspectRatio="xMidYMid meet" version="1.0"><defs><g/></defs><g fill="#ffffff" fill-opacity="1"><g transform="translate(5.646911, 45.214324)"><g><path d="M 12.015625 -11.046875 C 12.015625 -11.046875 11.984375 -11.035156 11.921875 -11.015625 C 11.867188 -10.992188 11.800781 -10.941406 11.71875 -10.859375 C 11.644531 -10.785156 11.578125 -10.671875 11.515625 -10.515625 C 11.453125 -10.359375 11.421875 -10.140625 11.421875 -9.859375 L 11.421875 -1.171875 C 11.421875 -0.898438 11.453125 -0.6875 11.515625 -0.53125 C 11.578125 -0.375 11.644531 -0.253906 11.71875 -0.171875 C 11.800781 -0.0976562 11.867188 -0.0507812 11.921875 -0.03125 C 11.984375 -0.0078125 12.015625 0 12.015625 0 L 9.875 0 C 9.875 0 9.90625 -0.0078125 9.96875 -0.03125 C 10.03125 -0.0507812 10.097656 -0.0976562 10.171875 -0.171875 C 10.253906 -0.253906 10.320312 -0.375 10.375 -0.53125 C 10.4375 -0.6875 10.46875 -0.898438 10.46875 -1.171875 L 10.46875 -9.59375 C 10.46875 -9.769531 10.453125 -9.921875 10.421875 -10.046875 C 10.398438 -10.171875 10.367188 -10.28125 10.328125 -10.375 C 10.273438 -10.3125 10.210938 -10.242188 10.140625 -10.171875 C 10.078125 -10.097656 10 -9.976562 9.90625 -9.8125 C 9.8125 -9.644531 9.703125 -9.382812 9.578125 -9.03125 C 9.566406 -9.007812 9.550781 -8.976562 9.53125 -8.9375 C 9.519531 -8.90625 9.492188 -8.835938 9.453125 -8.734375 C 9.421875 -8.640625 9.363281 -8.488281 9.28125 -8.28125 C 9.195312 -8.082031 9.085938 -7.800781 8.953125 -7.4375 C 8.816406 -7.082031 8.640625 -6.625 8.421875 -6.0625 C 8.210938 -5.507812 7.957031 -4.832031 7.65625 -4.03125 C 7.351562 -3.226562 6.988281 -2.273438 6.5625 -1.171875 C 6.457031 -0.910156 6.375 -0.695312 6.3125 -0.53125 C 6.25 -0.375 6.191406 -0.253906 6.140625 -0.171875 C 6.097656 -0.0976562 6.035156 -0.0507812 5.953125 -0.03125 C 5.878906 -0.0078125 5.78125 0 5.65625 0 C 5.65625 0 5.644531 -0.0195312 5.625 -0.0625 C 5.613281 -0.113281 5.578125 -0.222656 5.515625 -0.390625 C 5.453125 -0.554688 5.347656 -0.816406 5.203125 -1.171875 C 5.203125 -1.171875 5.195312 -1.179688 5.1875 -1.203125 C 5.1875 -1.222656 5.164062 -1.273438 5.125 -1.359375 C 5.09375 -1.453125 5.035156 -1.601562 4.953125 -1.8125 C 4.878906 -2.019531 4.769531 -2.304688 4.625 -2.671875 C 4.488281 -3.046875 4.304688 -3.523438 4.078125 -4.109375 C 3.859375 -4.691406 3.585938 -5.398438 3.265625 -6.234375 C 2.953125 -7.078125 2.578125 -8.078125 2.140625 -9.234375 C 2.015625 -9.535156 1.890625 -9.769531 1.765625 -9.9375 C 1.648438 -10.113281 1.554688 -10.25 1.484375 -10.34375 C 1.441406 -10.25 1.40625 -10.140625 1.375 -10.015625 C 1.351562 -9.898438 1.34375 -9.757812 1.34375 -9.59375 L 1.34375 -1.171875 C 1.34375 -0.898438 1.375 -0.6875 1.4375 -0.53125 C 1.5 -0.375 1.566406 -0.253906 1.640625 -0.171875 C 1.722656 -0.0976562 1.789062 -0.0507812 1.84375 -0.03125 C 1.90625 -0.0078125 1.9375 0 1.9375 0 L 0.3125 0 C 0.3125 0 0.34375 -0.0078125 0.40625 -0.03125 C 0.46875 -0.0507812 0.535156 -0.0976562 0.609375 -0.171875 C 0.679688 -0.253906 0.75 -0.375 0.8125 -0.53125 C 0.875 -0.6875 0.90625 -0.898438 0.90625 -1.171875 L 0.90625 -9.875 C 0.90625 -10.144531 0.875 -10.359375 0.8125 -10.515625 C 0.75 -10.671875 0.679688 -10.785156 0.609375 -10.859375 C 0.535156 -10.941406 0.46875 -10.992188 0.40625 -11.015625 C 0.34375 -11.035156 0.3125 -11.046875 0.3125 -11.046875 L 2.984375 -11.046875 C 2.984375 -11.046875 2.957031 -11.035156 2.90625 -11.015625 C 2.851562 -10.992188 2.800781 -10.941406 2.75 -10.859375 C 2.707031 -10.785156 2.6875 -10.671875 2.6875 -10.515625 C 2.6875 -10.359375 2.738281 -10.140625 2.84375 -9.859375 L 6.140625 -1.234375 L 9.4375 -9.859375 C 9.539062 -10.140625 9.59375 -10.359375 9.59375 -10.515625 C 9.59375 -10.671875 9.566406 -10.785156 9.515625 -10.859375 C 9.472656 -10.941406 9.425781 -10.992188 9.375 -11.015625 C 9.320312 -11.035156 9.296875 -11.046875 9.296875 -11.046875 Z M 12.015625 -11.046875 "/></g></g></g><g fill="#ffffff" fill-opacity="1"><g transform="translate(19.234884, 45.214324)"><g><path d="M 5.359375 -5.46875 C 5.359375 -5.46875 5.335938 -5.5 5.296875 -5.5625 C 5.265625 -5.632812 5.195312 -5.722656 5.09375 -5.828125 C 5 -5.941406 4.851562 -6.046875 4.65625 -6.140625 C 4.457031 -6.242188 4.195312 -6.332031 3.875 -6.40625 C 3.550781 -6.476562 3.148438 -6.515625 2.671875 -6.515625 L 1.859375 -6.5 L 1.859375 -1.171875 C 1.859375 -1.078125 1.863281 -0.972656 1.875 -0.859375 C 1.894531 -0.753906 1.941406 -0.664062 2.015625 -0.59375 C 2.085938 -0.519531 2.203125 -0.484375 2.359375 -0.484375 C 2.359375 -0.484375 2.429688 -0.484375 2.578125 -0.484375 C 2.734375 -0.484375 2.992188 -0.484375 3.359375 -0.484375 C 3.734375 -0.484375 4.253906 -0.484375 4.921875 -0.484375 C 5.484375 -0.484375 5.953125 -0.515625 6.328125 -0.578125 C 6.703125 -0.648438 7.003906 -0.738281 7.234375 -0.84375 C 7.472656 -0.945312 7.648438 -1.050781 7.765625 -1.15625 C 7.890625 -1.257812 7.972656 -1.34375 8.015625 -1.40625 C 8.054688 -1.476562 8.078125 -1.515625 8.078125 -1.515625 L 8.078125 0 L 0.3125 0 C 0.3125 0 0.34375 -0.0078125 0.40625 -0.03125 C 0.46875 -0.0507812 0.535156 -0.0976562 0.609375 -0.171875 C 0.679688 -0.253906 0.75 -0.375 0.8125 -0.53125 C 0.875 -0.6875 0.90625 -0.898438 0.90625 -1.171875 L 0.90625 -9.875 C 0.90625 -10.144531 0.875 -10.359375 0.8125 -10.515625 C 0.75 -10.671875 0.679688 -10.785156 0.609375 -10.859375 C 0.535156 -10.941406 0.46875 -10.992188 0.40625 -11.015625 C 0.34375 -11.035156 0.3125 -11.046875 0.3125 -11.046875 L 8.078125 -11.046875 L 8.078125 -9.53125 C 8.078125 -9.53125 8.054688 -9.5625 8.015625 -9.625 C 7.972656 -9.695312 7.890625 -9.785156 7.765625 -9.890625 C 7.648438 -9.992188 7.472656 -10.097656 7.234375 -10.203125 C 7.003906 -10.304688 6.703125 -10.390625 6.328125 -10.453125 C 5.953125 -10.523438 5.484375 -10.5625 4.921875 -10.5625 C 4.253906 -10.5625 3.734375 -10.5625 3.359375 -10.5625 C 2.992188 -10.5625 2.734375 -10.5625 2.578125 -10.5625 C 2.429688 -10.5625 2.359375 -10.5625 2.359375 -10.5625 C 2.191406 -10.5625 2.070312 -10.523438 2 -10.453125 C 1.925781 -10.378906 1.882812 -10.285156 1.875 -10.171875 C 1.863281 -10.066406 1.859375 -9.960938 1.859375 -9.859375 L 1.859375 -6.75 L 2.671875 -6.75 C 3.148438 -6.75 3.550781 -6.78125 3.875 -6.84375 C 4.195312 -6.914062 4.457031 -7.003906 4.65625 -7.109375 C 4.851562 -7.222656 5 -7.328125 5.09375 -7.421875 C 5.195312 -7.523438 5.265625 -7.613281 5.296875 -7.6875 C 5.335938 -7.757812 5.359375 -7.796875 5.359375 -7.796875 Z M 5.359375 -5.46875 "/></g></g></g><g fill="#ffffff" fill-opacity="1"><g transform="translate(28.899571, 45.214324)"><g><path d="M 2.671875 -11.046875 C 2.671875 -11.046875 2.644531 -11.035156 2.59375 -11.015625 C 2.550781 -10.992188 2.507812 -10.941406 2.46875 -10.859375 C 2.4375 -10.785156 2.429688 -10.671875 2.453125 -10.515625 C 2.484375 -10.359375 2.578125 -10.140625 2.734375 -9.859375 L 7.25 -1.703125 L 7.25 -9.875 C 7.25 -10.144531 7.21875 -10.359375 7.15625 -10.515625 C 7.09375 -10.671875 7.019531 -10.785156 6.9375 -10.859375 C 6.863281 -10.941406 6.796875 -10.992188 6.734375 -11.015625 C 6.679688 -11.035156 6.65625 -11.046875 6.65625 -11.046875 L 8.28125 -11.046875 C 8.28125 -11.046875 8.25 -11.035156 8.1875 -11.015625 C 8.125 -10.992188 8.054688 -10.941406 7.984375 -10.859375 C 7.910156 -10.785156 7.84375 -10.671875 7.78125 -10.515625 C 7.71875 -10.359375 7.6875 -10.140625 7.6875 -9.859375 L 7.6875 0 L 7.234375 0 L 1.78125 -9.875 C 1.65625 -10.082031 1.535156 -10.265625 1.421875 -10.421875 C 1.398438 -10.347656 1.378906 -10.265625 1.359375 -10.171875 C 1.347656 -10.078125 1.34375 -9.972656 1.34375 -9.859375 L 1.34375 -1.171875 C 1.34375 -0.898438 1.375 -0.6875 1.4375 -0.53125 C 1.5 -0.375 1.566406 -0.253906 1.640625 -0.171875 C 1.722656 -0.0976562 1.789062 -0.0507812 1.84375 -0.03125 C 1.90625 -0.0078125 1.9375 0 1.9375 0 L 0.3125 0 C 0.3125 0 0.34375 -0.0078125 0.40625 -0.03125 C 0.46875 -0.0507812 0.535156 -0.0976562 0.609375 -0.171875 C 0.679688 -0.253906 0.75 -0.375 0.8125 -0.53125 C 0.875 -0.6875 0.90625 -0.898438 0.90625 -1.171875 L 0.90625 -9.875 C 0.90625 -10.144531 0.875 -10.359375 0.8125 -10.515625 C 0.75 -10.671875 0.679688 -10.785156 0.609375 -10.859375 C 0.535156 -10.941406 0.46875 -10.992188 0.40625 -11.015625 C 0.34375 -11.035156 0.3125 -11.046875 0.3125 -11.046875 Z M 2.671875 -11.046875 "/></g></g></g><g fill="#ffffff" fill-opacity="1"><g transform="translate(38.764661, 45.214324)"><g><path d="M 8.203125 -4 L 8.203125 -9.875 C 8.203125 -10.144531 8.171875 -10.359375 8.109375 -10.515625 C 8.054688 -10.671875 7.988281 -10.785156 7.90625 -10.859375 C 7.832031 -10.941406 7.765625 -10.992188 7.703125 -11.015625 C 7.640625 -11.035156 7.609375 -11.046875 7.609375 -11.046875 L 9.25 -11.046875 C 9.25 -11.046875 9.21875 -11.035156 9.15625 -11.015625 C 9.09375 -10.992188 9.019531 -10.941406 8.9375 -10.859375 C 8.863281 -10.785156 8.796875 -10.671875 8.734375 -10.515625 C 8.679688 -10.359375 8.65625 -10.140625 8.65625 -9.859375 L 8.65625 -3.953125 C 8.65625 -3.203125 8.582031 -2.578125 8.4375 -2.078125 C 8.289062 -1.578125 8.066406 -1.175781 7.765625 -0.875 C 7.460938 -0.570312 7.078125 -0.351562 6.609375 -0.21875 C 6.140625 -0.09375 5.585938 -0.03125 4.953125 -0.03125 C 4.335938 -0.03125 3.78125 -0.0976562 3.28125 -0.234375 C 2.789062 -0.367188 2.363281 -0.582031 2 -0.875 C 1.644531 -1.175781 1.375 -1.578125 1.1875 -2.078125 C 1 -2.585938 0.90625 -3.210938 0.90625 -3.953125 L 0.90625 -9.875 C 0.90625 -10.144531 0.875 -10.359375 0.8125 -10.515625 C 0.75 -10.671875 0.679688 -10.785156 0.609375 -10.859375 C 0.535156 -10.941406 0.46875 -10.992188 0.40625 -11.015625 C 0.34375 -11.035156 0.3125 -11.046875 0.3125 -11.046875 L 2.484375 -11.046875 C 2.484375 -11.046875 2.453125 -11.035156 2.390625 -11.015625 C 2.328125 -10.992188 2.257812 -10.941406 2.1875 -10.859375 C 2.113281 -10.785156 2.046875 -10.671875 1.984375 -10.515625 C 1.921875 -10.359375 1.890625 -10.140625 1.890625 -9.859375 L 1.890625 -3.96875 C 1.890625 -3.28125 1.96875 -2.710938 2.125 -2.265625 C 2.289062 -1.816406 2.519531 -1.460938 2.8125 -1.203125 C 3.101562 -0.941406 3.429688 -0.753906 3.796875 -0.640625 C 4.160156 -0.535156 4.546875 -0.484375 4.953125 -0.484375 C 5.484375 -0.484375 5.953125 -0.535156 6.359375 -0.640625 C 6.765625 -0.753906 7.101562 -0.941406 7.375 -1.203125 C 7.65625 -1.460938 7.863281 -1.816406 8 -2.265625 C 8.132812 -2.722656 8.203125 -3.300781 8.203125 -4 Z M 8.203125 -4 "/></g></g></g><path stroke-linecap="butt" transform="matrix(0.740131, 0, 0, 0.740131, 7.120079, -0.00000197368)" fill="none" stroke-linejoin="miter" d="M 0.00137116 0.501392 L 55.291377 0.501392 " stroke="#ffffff" stroke-width="1" stroke-opacity="1" stroke-miterlimit="4"/><path stroke-linecap="butt" transform="matrix(0.740131, 0, 0, 0.740131, 7.120079, 12.434206)" fill="none" stroke-linejoin="miter" d="M 0.00137116 0.500561 L 55.291377 0.500561 " stroke="#ffffff" stroke-width="1" stroke-opacity="1" stroke-miterlimit="4"/><path stroke-linecap="butt" transform="matrix(0.740131, 0, 0, 0.740131, 7.120079, 24.276311)" fill="none" stroke-linejoin="miter" d="M 0.00137116 0.497506 L 55.291377 0.497506 " stroke="#ffffff" stroke-width="1" stroke-opacity="1" stroke-miterlimit="4"/></svg>